REM MD5 83ffb2defedd7c4a1e988e6f6e50a6e6
FILE "TOCA Touring Car Championship (Japan) (Demo).bin" BINARY
  TRACK 01 MODE2/2352
    INDEX 01 00:00:00
  TRACK 02 AUDIO
    INDEX 00 04:45:13
    INDEX 01 04:47:13
  TRACK 03 AUDIO
    INDEX 00 07:59:61
    INDEX 01 08:01:61
  TRACK 04 AUDIO
    INDEX 00 13:18:51
    INDEX 01 13:20:51
  TRACK 05 AUDIO
    INDEX 00 18:37:41
    INDEX 01 18:39:41
  TRACK 06 AUDIO
    INDEX 00 24:15:06
    INDEX 01 24:17:06
REM LEADOUT 29:33:71
